<svg xmlns="http://www.w3.org/2000/svg" viewBox="0 0 49.42 42.64"><defs><style>.cls-1{fill:#474949;}.cls-2{fill:#2e84c6;}</style></defs><title>Asset 1</title><g id="Layer_2" data-name="Layer 2"><g id="Layer_1-2" data-name="Layer 1"><path class="cls-1" d="M49.39,0H12.24S7.81-.6,7.81,4.46V28.08S8.23,34.62,0,42.64H13.82a10,10,0,0,0,4-.86c3.05-1.39,7.93-4.7,7.93-11.8V12.47s-.22-5.8,5.8-5.8H44.29a5,5,0,0,0,4.82-3.6A8.91,8.91,0,0,0,49.39,0Z"/><path class="cls-2" d="M44.74,9.37H31a2.84,2.84,0,0,0-3,3.17V27.09S44.74,26.88,44.74,9.37Z"/></g></g></svg>